<mxfile host="app.diagrams.net" modified="2024-03-22T08:00:23.648Z" agent="Mozilla/5.0 (iPhone; CPU iPhone OS 15_3 like Mac OS X) AppleWebKit/605.1.15 (KHTML, like Gecko) CriOS/122.0.6261.89 Mobile/15E148 Safari/604.1" version="24.0.7" etag="XTsxjw7lxOByn2EU6c6j" type="github">
  <diagram name="Page-1" id="CJkHiZ7HcztZ1U6L-2IV">
    <mxGraphModel>
      <root>
        <mxCell id="0" />
        <mxCell id="1" parent="0" />
      </root>
    </mxGraphModel>
  </diagram>
</mxfile>
